<mxfile host="app.diagrams.net" agent="Mozilla/5.0 (Windows NT 10.0; Win64; x64) AppleWebKit/537.36 (KHTML, like Gecko) Chrome/131.0.0.0 Safari/537.36" version="24.7.17">
  <diagram name="Sayfa -1" id="ak-wfp10g2tuk_otOPGH">
    <mxGraphModel dx="1050" dy="563" grid="1" gridSize="10" guides="1" tooltips="1" connect="1" arrows="1" fold="1" page="1" pageScale="1" pageWidth="827" pageHeight="1169" math="0" shadow="0">
      <root>
        <mxCell id="0" />
        <mxCell id="1" parent="0" />
        <mxCell id="blDjR3-v6BseYJe1y8UH-1" value="Başla" style="ellipse;whiteSpace=wrap;html=1;aspect=fixed;" vertex="1" parent="1">
          <mxGeometry x="340" width="40" height="40" as="geometry" />
        </mxCell>
        <mxCell id="blDjR3-v6BseYJe1y8UH-2" value="Paranı Belirle" style="shape=parallelogram;perimeter=parallelogramPerimeter;whiteSpace=wrap;html=1;fixedSize=1;" vertex="1" parent="1">
          <mxGeometry x="308" y="60" width="96" height="40" as="geometry" />
        </mxCell>
        <mxCell id="blDjR3-v6BseYJe1y8UH-3" style="edgeStyle=orthogonalEdgeStyle;rounded=0;orthogonalLoop=1;jettySize=auto;html=1;entryX=0.55;entryY=0.167;entryDx=0;entryDy=0;entryPerimeter=0;" edge="1" parent="1" source="blDjR3-v6BseYJe1y8UH-1" target="blDjR3-v6BseYJe1y8UH-2">
          <mxGeometry relative="1" as="geometry" />
        </mxCell>
        <mxCell id="blDjR3-v6BseYJe1y8UH-4" value="&lt;div style=&quot;&quot;&gt;&lt;span style=&quot;background-color: initial;&quot;&gt;Alıcağın Ürünü Belirle&lt;/span&gt;&lt;/div&gt;&lt;div style=&quot;font-size: 18px; line-height: 40%;&quot;&gt;&lt;br&gt;&lt;/div&gt;" style="shape=parallelogram;perimeter=parallelogramPerimeter;whiteSpace=wrap;html=1;fixedSize=1;align=center;" vertex="1" parent="1">
          <mxGeometry x="267" y="120" width="147" height="40" as="geometry" />
        </mxCell>
        <mxCell id="blDjR3-v6BseYJe1y8UH-6" style="edgeStyle=orthogonalEdgeStyle;rounded=0;orthogonalLoop=1;jettySize=auto;html=1;entryX=0.603;entryY=-0.01;entryDx=0;entryDy=0;entryPerimeter=0;" edge="1" parent="1" source="blDjR3-v6BseYJe1y8UH-2" target="blDjR3-v6BseYJe1y8UH-4">
          <mxGeometry relative="1" as="geometry" />
        </mxCell>
        <mxCell id="blDjR3-v6BseYJe1y8UH-24" style="edgeStyle=orthogonalEdgeStyle;rounded=0;orthogonalLoop=1;jettySize=auto;html=1;" edge="1" parent="1" source="blDjR3-v6BseYJe1y8UH-7" target="blDjR3-v6BseYJe1y8UH-18">
          <mxGeometry relative="1" as="geometry" />
        </mxCell>
        <mxCell id="blDjR3-v6BseYJe1y8UH-7" value="Ürünün parasını Belirle" style="shape=parallelogram;perimeter=parallelogramPerimeter;whiteSpace=wrap;html=1;fixedSize=1;" vertex="1" parent="1">
          <mxGeometry x="280.5" y="200" width="120" height="50" as="geometry" />
        </mxCell>
        <mxCell id="blDjR3-v6BseYJe1y8UH-8" style="edgeStyle=orthogonalEdgeStyle;rounded=0;orthogonalLoop=1;jettySize=auto;html=1;entryX=0.671;entryY=0.167;entryDx=0;entryDy=0;entryPerimeter=0;" edge="1" parent="1" source="blDjR3-v6BseYJe1y8UH-4" target="blDjR3-v6BseYJe1y8UH-7">
          <mxGeometry relative="1" as="geometry" />
        </mxCell>
        <mxCell id="blDjR3-v6BseYJe1y8UH-9" style="edgeStyle=orthogonalEdgeStyle;rounded=0;orthogonalLoop=1;jettySize=auto;html=1;exitX=0.5;exitY=1;exitDx=0;exitDy=0;" edge="1" parent="1" source="blDjR3-v6BseYJe1y8UH-7" target="blDjR3-v6BseYJe1y8UH-7">
          <mxGeometry relative="1" as="geometry" />
        </mxCell>
        <mxCell id="blDjR3-v6BseYJe1y8UH-21" value="Hayır" style="edgeStyle=orthogonalEdgeStyle;rounded=0;orthogonalLoop=1;jettySize=auto;html=1;entryX=0;entryY=0.75;entryDx=0;entryDy=0;" edge="1" parent="1" source="blDjR3-v6BseYJe1y8UH-18" target="blDjR3-v6BseYJe1y8UH-4">
          <mxGeometry x="-0.2762" y="13" relative="1" as="geometry">
            <mxPoint x="280" y="153" as="targetPoint" />
            <Array as="points">
              <mxPoint x="270" y="160" />
              <mxPoint x="270" y="149" />
            </Array>
            <mxPoint as="offset" />
          </mxGeometry>
        </mxCell>
        <mxCell id="blDjR3-v6BseYJe1y8UH-25" value="Evet&lt;div&gt;&lt;br&gt;&lt;/div&gt;" style="edgeStyle=orthogonalEdgeStyle;rounded=0;orthogonalLoop=1;jettySize=auto;html=1;" edge="1" parent="1" source="blDjR3-v6BseYJe1y8UH-18">
          <mxGeometry x="0.328" y="20" relative="1" as="geometry">
            <mxPoint x="190" y="290" as="targetPoint" />
            <mxPoint as="offset" />
          </mxGeometry>
        </mxCell>
        <mxCell id="blDjR3-v6BseYJe1y8UH-18" value="Paran ürün için yeterli mi?" style="rhombus;whiteSpace=wrap;html=1;" vertex="1" parent="1">
          <mxGeometry x="140" y="150" width="100" height="80" as="geometry" />
        </mxCell>
        <mxCell id="blDjR3-v6BseYJe1y8UH-35" style="edgeStyle=orthogonalEdgeStyle;rounded=0;orthogonalLoop=1;jettySize=auto;html=1;entryX=0;entryY=0.5;entryDx=0;entryDy=0;" edge="1" parent="1" source="blDjR3-v6BseYJe1y8UH-26" target="blDjR3-v6BseYJe1y8UH-34">
          <mxGeometry relative="1" as="geometry" />
        </mxCell>
        <mxCell id="blDjR3-v6BseYJe1y8UH-26" value="Aldığın Ürünü Barkodlayıp stoğa ekle" style="shape=parallelogram;perimeter=parallelogramPerimeter;whiteSpace=wrap;html=1;fixedSize=1;" vertex="1" parent="1">
          <mxGeometry x="120" y="300" width="120" height="60" as="geometry" />
        </mxCell>
        <mxCell id="blDjR3-v6BseYJe1y8UH-37" value="" style="edgeStyle=orthogonalEdgeStyle;rounded=0;orthogonalLoop=1;jettySize=auto;html=1;" edge="1" parent="1" source="blDjR3-v6BseYJe1y8UH-34" target="blDjR3-v6BseYJe1y8UH-36">
          <mxGeometry relative="1" as="geometry" />
        </mxCell>
        <mxCell id="blDjR3-v6BseYJe1y8UH-34" value="Ürünü satacağın fiyatı belirle&lt;div&gt;ve satışa koy&lt;/div&gt;&lt;div&gt;&lt;br&gt;&lt;/div&gt;" style="shape=parallelogram;perimeter=parallelogramPerimeter;whiteSpace=wrap;html=1;fixedSize=1;" vertex="1" parent="1">
          <mxGeometry x="290" y="300" width="140" height="60" as="geometry" />
        </mxCell>
        <mxCell id="blDjR3-v6BseYJe1y8UH-42" value="Evet&lt;div&gt;&lt;br&gt;&lt;/div&gt;" style="edgeStyle=orthogonalEdgeStyle;rounded=0;orthogonalLoop=1;jettySize=auto;html=1;" edge="1" parent="1" source="blDjR3-v6BseYJe1y8UH-36" target="blDjR3-v6BseYJe1y8UH-41">
          <mxGeometry x="-0.1429" y="25" relative="1" as="geometry">
            <mxPoint y="1" as="offset" />
          </mxGeometry>
        </mxCell>
        <mxCell id="blDjR3-v6BseYJe1y8UH-36" value="Ürün için verdiğin fiyat uygun mu ?" style="rhombus;whiteSpace=wrap;html=1;" vertex="1" parent="1">
          <mxGeometry x="460" y="282.5" width="90" height="95" as="geometry" />
        </mxCell>
        <mxCell id="blDjR3-v6BseYJe1y8UH-38" value="Hayır" style="edgeStyle=orthogonalEdgeStyle;rounded=0;orthogonalLoop=1;jettySize=auto;html=1;exitX=0.5;exitY=0;exitDx=0;exitDy=0;entryX=0.429;entryY=0.017;entryDx=0;entryDy=0;entryPerimeter=0;" edge="1" parent="1" source="blDjR3-v6BseYJe1y8UH-36" target="blDjR3-v6BseYJe1y8UH-34">
          <mxGeometry x="-0.016" y="8" relative="1" as="geometry">
            <mxPoint as="offset" />
          </mxGeometry>
        </mxCell>
        <mxCell id="blDjR3-v6BseYJe1y8UH-55" style="edgeStyle=orthogonalEdgeStyle;rounded=0;orthogonalLoop=1;jettySize=auto;html=1;exitX=0;exitY=0;exitDx=0;exitDy=0;entryX=0.5;entryY=0;entryDx=0;entryDy=0;" edge="1" parent="1" source="blDjR3-v6BseYJe1y8UH-41" target="blDjR3-v6BseYJe1y8UH-43">
          <mxGeometry relative="1" as="geometry" />
        </mxCell>
        <mxCell id="blDjR3-v6BseYJe1y8UH-41" value="Ürün satılana Kadar bekle" style="whiteSpace=wrap;html=1;" vertex="1" parent="1">
          <mxGeometry x="445" y="430" width="120" height="60" as="geometry" />
        </mxCell>
        <mxCell id="blDjR3-v6BseYJe1y8UH-47" value="Evet" style="edgeStyle=orthogonalEdgeStyle;rounded=0;orthogonalLoop=1;jettySize=auto;html=1;" edge="1" parent="1" source="blDjR3-v6BseYJe1y8UH-43" target="blDjR3-v6BseYJe1y8UH-46">
          <mxGeometry y="20" relative="1" as="geometry">
            <mxPoint as="offset" />
          </mxGeometry>
        </mxCell>
        <mxCell id="blDjR3-v6BseYJe1y8UH-54" value="Hayır" style="edgeStyle=orthogonalEdgeStyle;rounded=0;orthogonalLoop=1;jettySize=auto;html=1;exitX=1;exitY=0.5;exitDx=0;exitDy=0;entryX=0;entryY=0.5;entryDx=0;entryDy=0;" edge="1" parent="1" source="blDjR3-v6BseYJe1y8UH-43" target="blDjR3-v6BseYJe1y8UH-41">
          <mxGeometry y="-10" relative="1" as="geometry">
            <mxPoint as="offset" />
          </mxGeometry>
        </mxCell>
        <mxCell id="blDjR3-v6BseYJe1y8UH-43" value="ürün satıldı mı?" style="rhombus;whiteSpace=wrap;html=1;" vertex="1" parent="1">
          <mxGeometry x="290" y="415" width="85" height="90" as="geometry" />
        </mxCell>
        <mxCell id="blDjR3-v6BseYJe1y8UH-60" value="" style="edgeStyle=orthogonalEdgeStyle;rounded=0;orthogonalLoop=1;jettySize=auto;html=1;" edge="1" parent="1" source="blDjR3-v6BseYJe1y8UH-46" target="blDjR3-v6BseYJe1y8UH-59">
          <mxGeometry relative="1" as="geometry" />
        </mxCell>
        <mxCell id="blDjR3-v6BseYJe1y8UH-46" value="Kar ve elinde kalan tutarı topla ve yazdır" style="whiteSpace=wrap;html=1;" vertex="1" parent="1">
          <mxGeometry x="272.5" y="555" width="120" height="60" as="geometry" />
        </mxCell>
        <mxCell id="blDjR3-v6BseYJe1y8UH-59" value="Bitir" style="ellipse;whiteSpace=wrap;html=1;" vertex="1" parent="1">
          <mxGeometry x="292.5" y="685" width="80" height="80" as="geometry" />
        </mxCell>
      </root>
    </mxGraphModel>
  </diagram>
</mxfile>
